# AST/ASF file generated using VICON BodyLanguage
# -----------------------------------------------
:version 1.10
:name VICON
:units
  mass 1.0
  length 0.45
  angle deg
:documentation
   .ast/.asf automatically generated from VICON data using
   VICON BodyBuilder and BodyLanguage model FoxedUp or BRILLIANT.MOD
:root
   order TX TY TZ RX RY RZ
   axis XYZ
   position 0 0 0  
   orientation 0 0 0 
:bonedata
  begin
     id 1 
     name lhipjoint
     direction 0.635376 -0.686425 0.353719 
     length 2.47244 
     axis 0 0 0  XYZ
  end
  begin
     id 2 
     name lfemur
     direction 0.34202 -0.939693 0  
     length 7.25268  
     axis 0 0 20  XYZ
    dof rx ry rz
    limits (-160.0 20.0)
           (-70.0 70.0)
           (-60.0 70.0)
  end
  begin
     id 3 
     name ltibia
     direction 0.34202 -0.939693 0   
     length 7.6767   
     axis 0 0 20   XYZ
    dof rx
    limits (-10.0 170.0)
  end
  begin
     id 4 
     name lfoot
     direction 0.0803374 -0.220725 0.972022   
     length 2.22945   
     axis -90 7.62852e-016 20   XYZ
    dof rx rz
    limits (-45.0 90.0)
           (-70.0 20.0)
  end
  begin
     id 5 
     name ltoes
     direction 1.53579e-011 -4.21994e-011 1   
     length 1.11848   
     axis -90 7.62852e-016 20   XYZ
    dof rx
    limits (-90.0 20.0)
  end
  begin
     id 6 
     name rhipjoint
     direction -0.664428 -0.664335 0.342336   
     length 2.55466  
     axis 0 0 0  XYZ 
  end
  begin
     id 7 
     name rfemur
     direction -0.34202 -0.939693 0   
     length 6.83172   
     axis 0 0 -20   XYZ
    dof rx ry rz
    limits (-160.0 20.0)
           (-70.0 70.0)
           (-70.0 60.0)
  end
  begin
     id 8 
     name rtibia
     direction -0.34202 -0.939693 0   
     length 7.62692   
     axis 0 0 -20   XYZ
    dof rx
    limits (-10.0 170.0)
 end
 begin
     id 9 
     name rfoot
     direction -0.0949276 -0.260811 0.960711   
     length 2.19684  
     axis -90 -7.62852e-016 -20   XYZ
    dof rx rz
    limits (-45.0 90.0)
           (-20.0 70.0)
  end
  begin
     id 10 
     name rtoes
     direction -1.53543e-011 -4.2183e-011 1   
     length 1.09848   
     axis -90 -7.62852e-016 -20   XYZ
    dof rx
    limits (-90.0 20.0)
  end
  begin
     id 11 
     name lowerback
     direction 0.0118782 0.999815 -0.0151555   
     length 2.15772   
     axis 0 0 0   XYZ
    dof rx ry rz
    limits (-20.0 45.0)
           (-30.0 30.0)
           (-30.0 30.0)
  end
  begin
     id 12 
     name upperback
     direction 0.00130825 0.999065 0.0432113   
     length 2.14863   
     axis 0 0 0   XYZ
    dof rx ry rz
    limits (-20.0 45.0)
           (-30.0 30.0)
           (-30.0 30.0)
  end
  begin
     id 13 
     name thorax
     direction -0.00347005 0.998773 0.0494011   
     length 2.14936   
     axis 0 0 0   XYZ
    dof rx ry rz
    limits (-20.0 45.0)
           (-30.0 30.0)
           (-30.0 30.0)
  end
  begin
     id 14 
     name lowerneck
     direction -0.0262159 0.99424 0.103921   
     length 1.69373   
     axis 0 0 0   XYZ
    dof rx ry rz
    limits (-20.0 45.0)
           (-30.0 30.0)
           (-30.0 30.0)
  end
  begin
     id 15 
     name upperneck
     direction 0.0353511 0.977394 -0.20845   
     length 1.70857   
     axis 0 0 0   XYZ
    dof rx ry rz
    limits (-20.0 45.0)
           (-30.0 30.0)
           (-30.0 30.0)
  end
  begin
     id 16
     name head
     direction 0.0139214 0.996594 -0.0812836  
     length 1.72777  
     axis 0 0 0   XYZ
    dof rx ry rz
    limits (-20.0 45.0)
           (-30.0 30.0)
           (-30.0 30.0)
  end
  begin
     id 17 
     name lclavicle
     direction 0.841247 0.537205 -0.0609508  
     length 3.55371  
     axis 0 0 0   XYZ
    dof ry rz
    limits (-20.0 10.0)
           (0.0 20.0)
  end
  begin
     id 18 
     name lhumerus
     direction 1 -4.48964e-011 1.60116e-018   
     length 4.91377   
     axis -180 -30 -90   XYZ
    dof rx ry rz
    limits (-60.0 90.0)
           (-90.0 90.0)
           (-90.0 90.0)
  end
  begin
     id 19
     name lradius
     direction 1 -4.48989e-011 -8.93847e-027   
     length 3.00291   
     axis -180 -30 -90   XYZ
    dof rx
    limits (-10.0 170.0)
  end
  begin
     id 20
     name lwrist
     direction 1 -4.48932e-011 -7.31504e-027   
     length 1.50145   
     axis 5.74121e-015 90 90   XYZ
    dof ry
    limits (-180.0 0.0)
 end
  begin
     id 21 
     name lhand
     direction 1 -4.48971e-011 -1.46301e-026   
     length 0.450922   
     axis 9.33524e-015 90 90   XYZ
    dof rx rz
    limits (-90.0 90.0)
           (-45.0 45.0)
  end
  begin
     id 22 
     name lfingers
     direction 1 -4.49039e-011 -2.92602e-026   
     length 0.363545   
     axis 1.86705e-014 90 90   XYZ
    dof rx
    limits (0.0 90.0)
  end
  begin
     id 23
     name lthumb
     direction 0.707107 -6.34941e-011 0.707107   
     length 0.52198   
     axis -90 45 2.85299e-015   XYZ
    dof rx rz
    limits (-45.0 45.0)
           (-45.0 45.0)
  end
  begin
     id 24 
     name rclavicle
     direction -0.825079 0.56158 -0.0622297   
     length 3.39909  
     axis 0 0 0   XYZ 
    dof ry rz
    limits (-10.0 20.0)
           (-20.0 0.0)
  end
  begin
     id 25 
     name rhumerus
     direction -1 -4.48965e-011 1.61691e-027  
     length 4.86725   
     axis -180 30 90   XYZ
    dof rx ry rz
    limits (-90.0 60.0)
           (-90.0 90.0)
           (-90.0 90.0)
  end
  begin
     id 26 
     name rradius
     direction -1 -4.48964e-011 -2.25776e-027   
     length 3.17144   
     axis -180 30 90   XYZ
    dof rx
    limits (-10.0 170.0)
  end
  begin
     id 27 
     name rwrist
     direction -1 -4.48961e-011 -7.31504e-027   
     length 1.58572   
     axis 5.74121e-015 -90 -90   XYZ
    dof ry
    limits (-180.0 0.0)
  end
  begin
     id 28
     name rhand
     direction -1 -4.49013e-011 -1.46301e-026   
     length 0.419368   
     axis 9.33524e-015 -90 -90   XYZ
    dof rx rz
    limits (-90.0 90.0)
           (-45.0 45.0)
  end
  begin
     id 29
     name rfingers
     direction -1 -4.489e-011 -2.92602e-026   
     length 0.338105   
     axis 1.86705e-014 -90 -90   XYZ
    dof rx
    limits (0.0 90.0)
  end
  begin
     id 30
     name rthumb
     direction -0.707107 -6.35022e-011 0.707107   
     length 0.485453   
     axis -90 -45 -2.85299e-015   XYZ
    dof rx rz
    limits (-45.0 45.0)
           (-45.0 45.0)
  end
:hierarchy
  begin
    root lhipjoint rhipjoint lowerback
    lhipjoint lfemur
    lfemur ltibia
    ltibia lfoot
    lfoot ltoes
    rhipjoint rfemur
    rfemur rtibia
    rtibia rfoot
    rfoot rtoes
    lowerback upperback
    upperback thorax
    thorax lowerneck lclavicle rclavicle
    lowerneck upperneck
    upperneck head
    lclavicle lhumerus
    lhumerus lradius
    lradius lwrist
    lwrist lhand lthumb
    lhand lfingers
    rclavicle rhumerus
    rhumerus rradius
    rradius rwrist
    rwrist rhand rthumb
    rhand rfingers
  end

#!OML:ASF H:\Swim 2\Project 1\Capture day 1\Session 1\male.ASF
:FULLY-SPECIFIED
:DEGREES
353
root 1.10245 15.0074 8.08702 107.054 11.9698 2.69922
lowerback -9.40625 1.70867 22.3046
upperback -6.52791 0.612474 -2.21512
thorax -1.83211 -0.521631 -15.1366
lowerneck -23.8304 3.50922 6.37046
upperneck 35.853 1.2166 2.72944
head 17.2158 1.71154 0.36047
rclavicle 2.08724e-014 -2.98177e-016
rhumerus 86.5372 -27.2573 -35.1852
rradius 22.9234
rwrist 22.0081
rhand -14.8742 -2.21663
rfingers 7.12502
rthumb 11.2861 -31.893
lclavicle 2.08724e-014 -2.98177e-016
lhumerus -92.648 -69.5346 123.835
lradius 56.5894
lwrist 56.4575
lhand -42.0901 -11.0661
lfingers 7.12502
lthumb -14.9819 18.3719
rfemur -57.1176 2.45416 15.0204
rtibia 39.36
rfoot 27.1578 -2.28975
rtoes 14.0664
lfemur -41.0909 1.31462 -28.5547
ltibia 44.0773
lfoot -9.36251 3.62324
ltoes -23.6172
354
root 1.07419 15.0113 8.13519 107.014 12.2069 3.21546
lowerback -9.47459 1.68046 22.3108
upperback -6.50403 0.55472 -2.15285
thorax -1.79063 -0.542359 -15.0704
lowerneck -23.7909 3.4707 6.37238
upperneck 35.8811 1.16817 2.72255
head 17.2201 1.6938 0.347125
rclavicle 4.77083e-015 -2.7218e-014
rhumerus 88.4144 -27.1832 -38.3486
rradius 21.9829
rwrist 23.5092
rhand -14.5518 -2.56158
rfingers 7.12502
rthumb 11.597 -32.2207
lclavicle 4.77083e-015 -2.7218e-014
lhumerus -96.0144 -68.0074 127.41
lradius 56.2638
lwrist 56.2499
lhand -41.9417 -10.7213
lfingers 7.12502
lthumb -14.839 18.7274
rfemur -56.9867 2.69829 14.9857
rtibia 37.4516
rfoot 26.9406 -3.03263
rtoes 14.1693
lfemur -40.1613 1.61326 -28.3104
ltibia 44.5476
lfoot -9.05713 3.48502
ltoes -23.5219
355
root 1.04438 15.0154 8.18085 106.989 12.448 3.79178
lowerback -9.5511 1.65133 22.3015
upperback -6.48603 0.49558 -2.0827
thorax -1.7512 -0.56379 -14.986
lowerneck -23.6047 3.45171 6.40266
upperneck 35.7143 1.18558 2.64558
head 17.0867 1.69182 0.304567
rclavicle -1.19271e-015 2.14532e-014
rhumerus 90.505 -26.9625 -41.8648
rradius 21.0313
rwrist 25.297
rhand -14.2337 -2.86004
rfingers 7.12502
rthumb 11.9038 -32.5016
lclavicle -1.19271e-015 2.14532e-014
lhumerus -98.8108 -66.5034 130.334
lradius 56.0944
lwrist 56.2137
lhand -41.6088 -10.4226
lfingers 7.12502
lthumb -14.5183 19.0495
rfemur -56.8279 2.92723 14.9356
rtibia 35.6665
rfoot 26.7238 -3.57021
rtoes 14.0811
lfemur -39.3193 1.8303 -28.03
ltibia 45.0921
lfoot -8.79227 3.38655
ltoes -23.5192
356
root 1.01335 15.0197 8.22271 106.98 12.6872 4.42309
lowerback -9.62991 1.62257 22.2821
upperback -6.47715 0.438294 -2.00662
thorax -1.71964 -0.585486 -14.8885
lowerneck -23.3534 3.44075 6.47445
upperneck 35.4838 1.24689 2.46432
head 16.9068 1.69669 0.215592
rclavicle -6.85807e-015 2.22732e-014
rhumerus 92.0745 -26.7807 -44.6352
rradius 20.4949
rwrist 26.4513
rhand -13.8917 -3.30809
rfingers 7.12502
rthumb 12.2335 -32.9303
lclavicle -6.85807e-015 2.22732e-014
lhumerus -101.164 -65.0525 132.744
lradius 56.0469
lwrist 56.2993
lhand -41.0637 -10.2375
lfingers 7.12502
lthumb -13.993 19.2716
rfemur -56.6514 3.13739 14.8634
rtibia 34.0539
rfoot 26.4936 -3.94709
rtoes 13.9135
lfemur -38.5707 1.93419 -27.7192
ltibia 45.7133
lfoot -8.54834 3.32045
ltoes -23.5236
357
root 0.981758 15.0244 8.26026 107.002 12.9251 5.104
lowerback -9.71736 1.59953 22.2682
upperback -6.48118 0.387662 -1.92387
thorax -1.69538 -0.605806 -14.7859
lowerneck -23.0734 3.43512 6.5871
upperneck 35.2342 1.35149 2.15686
head 16.7138 1.70613 0.0729363
rclavicle -5.56597e-015 -1.52723e-014
rhumerus 93.51 -26.5642 -47.1479
rradius 20.068
rwrist 27.4405
rhand -13.6026 -3.70813
rfingers 7.12502
rthumb 12.5122 -33.3135
lclavicle -5.56597e-015 -1.52723e-014
lhumerus -103.207 -63.6824 134.798
lradius 56.0811
lwrist 56.4544
lhand -40.4034 -10.2096
lfingers 7.12502
lthumb -13.3567 19.3423
rfemur -56.4835 3.33105 14.7651
rtibia 32.6563
rfoot 26.254 -4.16753
rtoes 13.8109
lfemur -37.9407 1.91428 -27.3862
ltibia 46.4142
lfoot -8.28198 3.27289
ltoes -23.4411
358
root 0.950225 15.0296 8.29364 107.053 13.1601 5.83899
lowerback -9.81417 1.58353 22.2613
upperback -6.49747 0.345077 -1.83011
thorax -1.67673 -0.623677 -14.6736
lowerneck -22.9336 3.3999 6.68032
upperneck 35.2228 1.42611 1.78382
head 16.6772 1.69735 -0.0941182
rclavicle -2.50469e-014 3.58309e-014
rhumerus 94.7671 -26.3373 -49.3069
rradius 19.7316
rwrist 28.222
rhand -13.4357 -4.00215
rfingers 7.12502
rthumb 12.6731 -33.5976
lclavicle -2.50469e-014 3.58309e-014
lhumerus -105.003 -62.3885 136.577
lradius 56.1576
lwrist 56.5787
lhand -39.6722 -10.3383
lfingers 7.12502
lthumb -12.6517 19.2586
rfemur -56.3291 3.49857 14.6477
rtibia 31.5127
rfoot 26.0123 -4.23286
rtoes 13.7712
lfemur -37.4334 1.7677 -27.0415
ltibia 47.1912
lfoot -7.99236 3.21249
ltoes -23.0055
359
root 0.919168 15.0352 8.32298 107.123 13.3685 6.61854
lowerback -9.91568 1.57159 22.2416
upperback -6.52181 0.308922 -1.72789
thorax -1.66132 -0.638615 -14.5433
lowerneck -22.7479 3.36283 6.75764
upperneck 35.1628 1.53971 1.33668
head 16.6061 1.69093 -0.283912
rclavicle -3.37934e-015 4.17137e-014
rhumerus 95.8184 -26.13 -51.0283
rradius 19.4639
rwrist 28.7129
rhand -13.4448 -4.138
rfingers 7.12502
rthumb 12.6644 -33.734
lclavicle -3.37934e-015 4.17137e-014
lhumerus -106.585 -61.1642 138.128
lradius 56.2419
lwrist 56.5936
lhand -38.9688 -10.5686
lfingers 7.12502
lthumb -11.9736 19.0689
rfemur -56.1912 3.6285 14.5017
rtibia 30.6593
rfoot 25.754 -4.19949
rtoes 13.8195
lfemur -37.0436 1.5014 -26.7224
ltibia 48.0294
lfoot -7.69068 3.09195
ltoes -22.2648
360
root 0.889034 15.0412 8.349 107.195 13.5617 7.44181
lowerback -10.0076 1.56276 22.21
upperback -6.54751 0.280899 -1.60643
thorax -1.64867 -0.648758 -14.3827
lowerneck -22.5301 3.31319 6.77311
upperneck 35.0684 1.67148 0.870886
head 16.5099 1.68087 -0.467433
rclavicle 1.55052e-014 4.35711e-014
rhumerus 96.6731 -25.9633 -52.3067
rradius 19.2726
rwrist 28.9797
rhand -13.5274 -4.17189
rfingers 7.12502
rthumb 12.5848 -33.7728
lclavicle 1.55052e-014 4.35711e-014
lhumerus -107.987 -59.9975 139.501
lradius 56.3102
lwrist 56.444
lhand -38.3613 -10.8583
lfingers 7.12502
lthumb -11.3878 18.8125
rfemur -56.0577 3.72131 14.3596
rtibia 30.1189
rfoot 25.486 -4.1367
rtoes 13.9144
lfemur -36.7529 1.13682 -26.4261
ltibia 48.9049
lfoot -7.42016 2.84546
ltoes -21.2977
361
root 0.85991 15.0472 8.37251 107.253 13.734 8.30002
lowerback -10.0842 1.553 22.1499
upperback -6.56817 0.257717 -1.46353
thorax -1.63515 -0.65414 -14.18
lowerneck -22.279 3.25235 6.73829
upperneck 34.9421 1.81649 0.388335
head 16.3904 1.66728 -0.646397
rclavicle -2.66371e-014 3.12589e-014
rhumerus 97.3147 -25.8596 -53.0974
rradius 19.1501
rwrist 28.9619
rhand -13.684 -4.10749
rfingers 7.12502
rthumb 12.4337 -33.7177
lclavicle -2.66371e-014 3.12589e-014
lhumerus -109.27 -58.8967 140.771
lradius 56.364
lwrist 56.1673
lhand -37.8196 -11.0745
lfingers 7.12502
lthumb -10.8652 18.6244
rfemur -55.9169 3.74253 14.2648
rtibia 29.901
rfoot 25.2041 -4.08637
rtoes 14.0023
lfemur -36.5404 0.701782 -26.1698
ltibia 49.7837
lfoot -7.21651 2.40438
ltoes -20.3095
362
root 0.831897 15.0527 8.39441 107.269 13.916 9.17791
lowerback -10.1201 1.54046 22.0955
upperback -6.57346 0.239361 -1.29657
thorax -1.62451 -0.655381 -13.9521
lowerneck -22.0219 3.18072 6.64069
upperneck 34.8138 1.95632 -0.0597157
head 16.2685 1.64905 -0.799258
rclavicle 2.22639e-014 3.72224e-014
rhumerus 97.7645 -25.8217 -53.4463
rradius 19.0985
rwrist 28.6767
rhand -13.8535 -4.00388
rfingers 7.12502
rthumb 12.2704 -33.6239
lclavicle 2.22639e-014 3.72224e-014
lhumerus -110.464 -57.8464 141.947
lradius 56.4103
lwrist 55.7711
lhand -37.4009 -11.2714
lfingers 7.12502
lthumb -10.4614 18.4484
rfemur -55.7377 3.69293 14.2811
rtibia 29.9919
rfoot 24.9265 -4.08717
rtoes 14.1049
lfemur -36.375 0.24221 -25.9328
ltibia 50.6302
lfoot -7.08807 1.7633
ltoes -19.4846
363
root 0.805093 15.0578 8.41537 107.248 14.1013 10.0522
lowerback -10.1198 1.52482 22.0535
upperback -6.56442 0.223621 -1.11757
thorax -1.61681 -0.65437 -13.7176
lowerneck -21.7526 3.11264 6.54457
upperneck 34.6724 2.10332 -0.51929
head 16.1396 1.63288 -0.954812
rclavicle 2.70347e-014 1.50082e-014
rhumerus 98.0386 -25.8425 -53.4108
rradius 19.115
rwrist 28.1202
rhand -14.0219 -3.89265
rfingers 7.12502
rthumb 12.108 -33.5223
lclavicle 2.70347e-014 1.50082e-014
lhumerus -111.551 -56.8377 142.961
lradius 56.4752
lwrist 55.3154
lhand -37.0472 -11.4683
lfingers 7.12502
lthumb -10.1202 18.2683
rfemur -55.53 3.55512 14.4229
rtibia 30.3647
rfoot 24.6909 -4.10536
rtoes 14.2262
lfemur -36.2639 -0.200621 -25.7408
ltibia 51.4098
lfoot -7.04384 0.942808
ltoes -19.1855
364
root 0.779513 15.0621 8.43553 107.209 14.3032 10.8983
lowerback -10.0993 1.51094 22.055
upperback -6.54329 0.210338 -0.935419
thorax -1.60727 -0.652265 -13.5049
lowerneck -21.5035 3.0577 6.48451
upperneck 34.5597 2.25486 -0.991649
head 16.0332 1.62258 -1.11991
rclavicle 1.74931e-014 1.50082e-014
rhumerus 98.1726 -25.8937 -53.1054
rradius 19.1767
rwrist 27.3638
rhand -14.2521 -3.73935
rfingers 7.12502
rthumb 11.886 -33.382
lclavicle 1.74931e-014 1.50082e-014
lhumerus -112.498 -55.8455 143.744
lradius 56.5675
lwrist 54.8491
lhand -36.7167 -11.6084
lfingers 7.12502
lthumb -9.80133 18.1435
rfemur -55.3134 3.33611 14.7015
rtibia 30.9795
rfoot 24.5216 -4.08082
rtoes 14.4263
lfemur -36.2227 -0.59535 -25.5907
ltibia 52.0946
lfoot -7.05957 0.0300144
ltoes -19.3002
365
root 0.755057 15.0662 8.45466 107.174 14.5122 11.6892
lowerback -10.0737 1.50178 22.1026
upperback -6.51602 0.19996 -0.760901
thorax -1.59451 -0.649663 -13.328
lowerneck -21.0228 3.05716 6.54262
upperneck 34.0903 2.48693 -1.55608
head 15.7089 1.64317 -1.32778
rclavicle 4.05521e-014 4.87022e-015
rhumerus 98.19 -25.9628 -52.5839
rradius 19.248
rwrist 26.421
rhand -14.5948 -3.50755
rfingers 7.12502
rthumb 11.5555 -33.169
lclavicle 4.05521e-014 4.87022e-015
lhumerus -113.3 -54.8558 144.27
lradius 56.6962
lwrist 54.4441
lhand -36.391 -11.7211
lfingers 7.12502
lthumb -9.48704 18.0453
rfemur -55.1194 3.05921 15.0774
rtibia 31.7974
rfoot 24.4182 -3.95827
rtoes 14.6702
lfemur -36.279 -0.911716 -25.5065
ltibia 52.6648
lfoot -7.12629 -0.875508
ltoes -19.7462
